<?xml version="1.0" encoding="utf-8"?>
<!-- Generator: Adobe Illustrator 24.2.3, SVG Export Plug-In . SVG Version: 6.00 Build 0)  -->
<svg version="1.1" id="Layer_1" xmlns="http://www.w3.org/2000/svg" xmlns:xlink="http://www.w3.org/1999/xlink" x="0px" y="0px"
	 viewBox="0 0 612 792" style="enable-background:new 0 0 612 792;" xml:space="preserve">
<style type="text/css">
	.st0{font-family:'Microsoft-Yi-Baiti';}
	.st1{font-size:110px;}
	.st2{letter-spacing:-8;}
	.st3{font-size:95px;}
	.st4{letter-spacing:-16;}
	.st5{letter-spacing:-7;}
	.st6{font-size:82px;}
	.st7{letter-spacing:-6;}
	.st8{fill:#FFFFFF;stroke:#414042;stroke-width:1.1;stroke-miterlimit:10;}
	.st9{fill:#FFFFFF;}
	.st10{opacity:0.0943;fill:#E88FA6;}
	.st11{fill:#FFFFFF;stroke:#000000;stroke-miterlimit:10;}
	.st12{fill:none;stroke:#000000;stroke-width:1.2;stroke-miterlimit:10;}
	.st13{fill:#FFFFFF;stroke:#E88FA6;stroke-width:3;stroke-miterlimit:10;}
	.st14{fill:#E88FA6;stroke:#E88FA6;stroke-miterlimit:10;}
</style>
<text transform="matrix(1 0 0 1 83.6774 286.0347)"><tspan x="0" y="0" class="st0 st1 st2">S</tspan><tspan x="47.56" y="0" class="st0 st3 st4">A</tspan><tspan x="79.23" y="0" class="st0 st3 st5">V</tspan><tspan x="119.54" y="0" class="st0 st3 st5">E </tspan><tspan x="195.33" y="0" class="st0 st6 st7"> </tspan><tspan x="225.3" y="0" class="st0 st1 st2"> </tspan><tspan x="265.5" y="0" class="st0 st1 st2">A</tspan><tspan x="313.06" y="0" class="st0 st3 st5">LL</tspan></text>
<path class="st8" d="M333.41,303.59l-4.24-3.55c-3.64-3.04-4.12-8.46-1.07-12.09l3.55-4.24c3.04-3.64,8.46-4.12,12.09-1.07
	l4.24,3.55c3.64,3.04,4.12,8.46,1.07,12.09l-3.55,4.24C342.46,306.16,337.05,306.64,333.41,303.59z"/>
<path class="st8" d="M256.74,303.96l-3.5-2.93c-3.84-3.22-4.35-8.94-1.13-12.78l2.93-3.5c3.22-3.84,8.94-4.35,12.78-1.13l3.5,2.93
	c3.84,3.22,4.35,8.94,1.13,12.78l-2.93,3.5C266.3,306.67,260.58,307.18,256.74,303.96z"/>
<path class="st8" d="M272.68,205.62c14.97-0.17,10.67,26.12,3.1,32.11c-7.58,5.99-27.1,4.16-30.53-10.41
	c-3.06-12.98-9.28-25.5-3.75-33.41C245.79,187.76,258.25,205.78,272.68,205.62z"/>
<path class="st8" d="M332.31,208.6c-14.97-0.17-10.67,26.12-3.1,32.11c7.58,5.99,27.1,4.16,30.53-10.41
	c3.06-12.98,9.28-25.5,3.75-33.41C359.21,190.74,346.75,208.76,332.31,208.6z"/>
<g>
	<ellipse class="st9" cx="299.89" cy="256.79" rx="51.85" ry="47.48"/>
	<g>
		<g>
			<path class="st10" d="M259.44,249.1c0.91-14.33,7.65-21.96,20.93-29.03c-0.69,0.31-1.38,0.62-2.08,0.94
				c3.45-1.26,6.9-2.51,10.36-3.77c-0.77,0.19-1.53,0.38-2.3,0.56c56.25,33.98,70.75,59.63,43.49,76.97
				c-2.55,1.64-5.24,3.03-8.05,4.16c-4.35,1.7-8.84,2.92-13.48,3.5c-4.75,0.59-9.71,0.53-14.45-0.14c-3.32-0.46-6.56-1.22-9.74-2.29
				c-24.78-10.47-34.92-27.88-30.41-52.22c0.1-0.48,0.19-1.37-0.58-1.19c-0.68,0.16-0.94,2.26-1.04,2.77
				c-0.79,4.2-1.14,8.14-0.91,12.41c0.22,4.07,1.3,8.1,2.76,11.9c2.46,6.4,6.39,11.96,11.28,16.74
				c22.12,21.61,63.9,18.23,80.16-8.85c3.78-6.29,5.94-13.34,6.09-20.71c0.14-7.06-1.59-14-4.82-20.25
				c-6.84-13.28-20.11-22.47-34.68-25.33c-12.4-2.43-25.09-0.35-36.2,5.54c-6.04,3.2-11.93,8.68-15.22,14.7
				c-1.38,2.53-2.58,5.23-3.36,8.01c-0.82,2.91-1,5.82-1.19,8.83c-0.06,1.04,1.42-0.36,1.43-0.37
				C258.09,251.3,259.38,250.12,259.44,249.1z"/>
			<path class="st10" d="M255.77,248.9c-0.06-2.29,0.22-4.53,0.84-6.71c0.23-1.45,0.66-2.84,1.3-4.16c2.79-7.06,8.24-13.02,14.65-17
				c6.26-3.88,13.82-6.34,21.18-6.88c7.28-0.53,14.57,0.22,21.5,2.55c3.74,1.26,7.32,2.88,10.67,4.98
				c13.47,8.46,21.72,22.64,21.13,40.93c0.19-1.5,0.38-3,0.58-4.5c-0.43,2.98-0.86,5.97-1.3,8.95c0.36-1.49,0.71-2.97,1.07-4.46
				c-0.75,2.93-1.51,5.86-2.26,8.79c0.52-1.44,1.04-2.88,1.55-4.31c-1.08,2.81-2.16,5.62-3.24,8.42c0.68-1.39,1.36-2.77,2.04-4.16
				c-1.38,2.67-2.75,5.33-4.13,8c0.83-1.3,1.66-2.59,2.49-3.89c-6.06,6.32-12.12,12.65-18.18,18.97c-1.93,1.17-3.95,2.16-6.05,2.98
				c-22.65,9.53-57.37,6.61-67.85-27.48c-0.86-2.81-1.53-5.63-1.91-8.55c-0.59-4.56,0-8.91,0.75-13.39c0.04-0.27,0.2-0.91-0.11-1.11
				c-0.44-0.28-1.04,1.32-1.11,1.48c-0.55,1.25-1.03,2.54-1.48,3.83c-0.36,1.03-0.89,2.2-0.89,3.31c0.01,6.48,0.56,12.84,3.15,18.89
				c2.86,6.7,7.07,12.66,12.52,17.48c6.41,5.67,13.86,9.53,22.14,11.66c7.85,2.02,15.99,2.16,23.97,0.81
				c15.78-2.67,31.15-13.69,37.32-28.68c2.68-6.52,3.91-13.42,3.41-20.46c-0.55-7.63-3.09-14.86-7.34-21.22
				c-10.69-15.96-30.2-24.21-49.11-22.27c-7.42,0.76-14.35,2.9-20.93,6.4c-6.57,3.49-12.76,9.12-16.61,15.52
				c-1.57,2.6-2.94,5.34-4.06,8.16c-1.7,4.27-2.32,8.65-2.74,13.18c-0.13,1.43,2.39-1.12,2.3-1.03c1.12-1.03,2.21-2.09,3.27-3.18
				C254.9,250.23,255.4,249.61,255.77,248.9z"/>
			<path class="st10" d="M256.94,244.72c0.09-3.11,0.63-6.14,1.64-9.08c1.97-5.46,5.07-10.05,9.29-13.79
				c4.39-3.91,9.73-6.74,15.31-8.53c5.91-1.9,12.2-2.63,18.4-2.27c15.78,1.38,27.98,7.56,36.6,18.53
				c20.41,26.71-8.47,31.17-86.65,13.36c0.18-0.9-0.43-0.82-0.89-0.37c-0.39,0.66-0.72,1.35-1,2.06c-0.31,0.7-0.57,1.42-0.77,2.16
				c-0.49,4.9-0.75,9.41,0.16,14.29c0.82,4.42,2.42,9.06,4.67,12.97c4.28,7.41,10.26,13.48,17.63,17.82
				c11.34,6.68,25.57,9.06,38.49,6.19c8.22-1.82,15.96-5.1,22.58-10.37c6.86-5.46,11.94-12.7,14.45-21.12
				c5.45-18.27-3.4-38.36-19.17-48.53c-12.87-8.3-28.62-10.65-43.45-6.86c-8.96,2.29-17.85,7.54-23.51,14.93
				c-1.98,2.58-3.76,5.24-5.02,8.26c-0.54,1.44-1.08,2.88-1.61,4.33c-1.03,2.97-1.67,6.03-1.92,9.16c-0.16,1.1,1.61-0.2,1.67-0.24
				c0.75-0.55,1.48-1.14,2.17-1.76C256.43,245.57,256.74,245.19,256.94,244.72z"/>
			<path class="st10" d="M257.35,248.36c0.13-1.56,0.25-3.12,0.38-4.67c-0.02,0.16-0.04,0.32-0.06,0.48
				c0.69-2.91,1.4-5.69,2.63-8.44c0.91-1.97,2.04-3.8,3.37-5.5c9.25-13.96,23.48-7.65,42.68,18.92c33.82-0.3,47.36,7.28,40.62,22.75
				c-0.45,1.42-1.06,2.77-1.82,4.05c-1.68,3.23-3.74,6.34-6.25,9c-4.08,4.32-8.88,7.93-14.22,10.57
				c-22.89-7.14-45.79-14.28-68.68-21.42c-1-1.95-1.78-3.99-2.34-6.1c-2.01-6.64-2.06-12.27-1.04-19.69
				c0.04-0.32,0.29-1.28-0.07-1.53c-0.41-0.29-1.17,2.24-1.21,2.35c-0.62,1.9-1.15,3.82-1.66,5.74c-0.37,1.39-1.21,3.4-1.03,4.87
				c0.78,6.34,2.15,12.35,5.18,18.04c2.91,5.48,7.02,10.43,11.76,14.42c10.24,8.59,23.8,12.97,37.11,12.57
				c13.48-0.4,26.98-5.72,36.65-15.22c9.93-9.75,15.32-23.61,13.82-37.51c-1.42-13.15-8.53-24.95-19.12-32.79
				c-11.18-8.28-25.23-11.94-39.05-10.44c-13.42,1.46-26.14,7.58-35.02,17.86c-4.17,4.83-7.11,10.24-9.4,16.18
				c-2.03,5.26-2.91,10.59-3.4,16.17c0.57-0.03,1.04-0.29,1.42-0.78c1.41-1.33,2.78-2.71,4.11-4.12c1.35-1.39,2.66-2.83,3.93-4.3
				C257.11,249.42,257.34,248.94,257.35,248.36z"/>
			<path class="st10" d="M255.9,247.23c-0.03-2.97,0.39-5.88,1.26-8.72c1.35-4.01,3.41-7.57,6.19-10.69
				c17.04-19.49,52.79-17.78,72.87,3.48c-0.5-0.61-1-1.21-1.5-1.82c1.38,1.78,2.75,3.55,4.13,5.33c-0.46-0.66-0.91-1.33-1.37-1.99
				c1.21,1.89,2.41,3.78,3.62,5.67c-0.4-0.72-0.8-1.44-1.2-2.15c1.02,2.02,2.04,4.03,3.06,6.05c-0.34-0.77-0.68-1.54-1.02-2.31
				c0.83,2.11,1.65,4.21,2.48,6.32c-0.27-0.82-0.54-1.63-0.81-2.45c0.61,2.21,1.22,4.41,1.83,6.62c-0.2-0.86-0.39-1.72-0.59-2.58
				c0.39,2.27,0.78,4.54,1.18,6.81c-0.11-0.89-0.22-1.79-0.33-2.68c0.14,2.34,0.29,4.67,0.43,7.01c-0.02-0.92-0.04-1.85-0.06-2.77
				c-0.09,2.37-0.19,4.74-0.28,7.12c0.16-1.48,0.33-2.97,0.49-4.45c-0.45,2.95-0.9,5.89-1.35,8.84c0.32-1.49,0.65-2.99,0.97-4.48
				c-0.76,2.91-1.53,5.82-2.29,8.73c0.5-1.47,0.99-2.94,1.49-4.41c-1.1,2.81-2.2,5.63-3.3,8.44c0.67-1.44,1.34-2.88,2.01-4.32
				c-1.4,2.69-2.8,5.38-4.2,8.07c0.84-1.37,1.68-2.74,2.52-4.11c-1.71,2.53-3.42,5.07-5.12,7.6c0.62-0.83,1.24-1.66,1.86-2.49
				c-1.59,1.9-3.18,3.79-4.77,5.69c0.72-0.76,1.43-1.52,2.15-2.28c-1.8,1.73-3.6,3.46-5.4,5.19c0.81-0.69,1.62-1.37,2.43-2.06
				c-1.98,1.56-3.96,3.11-5.94,4.67c0.89-0.59,1.78-1.19,2.67-1.78c-8.9,5.63-17.94,9.86-28.25,10.42
				c-4.07,0.22-8.09,0.05-12.13-0.56c-8.67-1.31-17.27-4.71-24.07-10.35c-5.87-4.86-10.47-10.75-13.57-17.72
				c-1.72-3.87-2.88-8.58-3.12-12.8c-0.27-4.61,0.32-8.93,1.24-13.46c0.18-0.9-0.42-0.83-0.89-0.38c-0.39,0.66-0.74,1.35-1.03,2.07
				c-0.32,0.7-0.58,1.42-0.79,2.17c-0.56,4.97-0.87,9.5-0.02,14.47c0.77,4.49,2.34,9.47,4.65,13.43c2.1,3.59,4.4,6.89,7.28,9.9
				c6.37,6.65,14.43,11.5,23.32,13.96c9.82,2.71,20.6,2.64,30.37-0.34c11.67-3.56,22.61-11.2,28.67-21.96
				c2.89-5.11,4.55-10.35,5.44-16.1c0.65-4.19,0.31-8.46-0.35-12.62c-1.89-11.95-9.79-22.32-19.44-29.2
				c-14.35-10.22-34.03-11.61-50.18-5.22c-8.3,3.28-15.94,9.36-20.54,17.06c-0.86,1.43-1.64,2.93-2.27,4.47
				c-0.52,1.42-1.04,2.85-1.56,4.27c-0.81,2.81-1.24,5.68-1.28,8.6c-0.09,1.07,1.52-0.21,1.6-0.28
				C253.79,249.6,255.83,248.25,255.9,247.23z"/>
			<path class="st10" d="M258.78,244.55c0.35-4.5,0.82-8.89,3.03-12.95c2.47-3.24,4.95-6.47,7.42-9.71c1.12-0.9,2.24-1.8,3.35-2.71
				c6.57-4.94,14.93-7.59,23.04-8.32c8.18-0.74,16.36,0.37,24.02,3.35c3.72,1.45,7.28,3.3,10.54,5.62
				c5.87,8.27,11.74,16.53,17.61,24.8c0.3,1.44,0.61,2.88,0.91,4.31c-26.84,12.37-53.67,24.75-80.51,37.12
				c0.58,0.46,1.16,0.93,1.74,1.39c-1.68-1.47-3.37-2.94-5.05-4.41c0.55,0.53,1.1,1.07,1.64,1.6c-1.54-1.62-3.08-3.24-4.62-4.86
				c0.5,0.6,1,1.2,1.51,1.8c-1.38-1.77-2.75-3.55-4.13-5.32c0.45,0.66,0.9,1.33,1.35,1.99c-1.2-1.9-2.41-3.8-3.61-5.7
				c0.39,0.72,0.77,1.44,1.16,2.16c-1.49-3.37-2.98-6.74-4.48-10.11c0.24,0.81,0.47,1.62,0.71,2.43c-0.57-2.21-1.15-4.41-1.72-6.62
				c0.15,0.84,0.3,1.68,0.46,2.53c-0.34-2.27-0.68-4.54-1.02-6.8c0.06,0.86,0.12,1.71,0.17,2.57c0.34-5.25,0.68-10.51,1.01-15.76
				c0.19-1.03-0.48-0.83-0.92-0.31c-0.37,0.78-0.69,1.58-0.95,2.41c-0.29,0.81-0.53,1.65-0.7,2.49c-0.34,4.68-0.36,9.14,0.51,13.76
				c0.82,4.36,2.56,8.5,4.67,12.39c3.52,6.5,8.94,11.87,14.94,16.07c7.52,5.26,17.29,8.52,26.46,8.82
				c8.93,0.29,17.95-0.79,26.13-4.62c7.73-3.62,14.66-8.72,19.61-15.76c5.28-7.52,8.07-17.16,7.28-26.35
				c-1.09-12.62-7.53-24.43-17.64-32.16c-8.12-6.21-17.94-10.21-28.19-10.9c-9.27-0.62-18.49,0.76-26.9,4.83
				c-5.82,2.82-11.04,6.6-15.11,11.64c-2.02,2.5-3.75,5.11-5.16,8.02c-1.09,2.04-1.93,4.19-2.53,6.44
				c-0.86,2.87-1.32,5.81-1.39,8.81c-0.11,1.2,1.81-0.45,1.84-0.48c0.84-0.69,1.66-1.41,2.44-2.17
				C258.19,245.54,258.54,245.09,258.78,244.55z"/>
			<path class="st10" d="M256.71,247.31c0.13-1.56,0.25-3.12,0.38-4.67c-0.03,0.16-0.05,0.31-0.08,0.47c0.86-3.64,1.82-7,3.67-10.3
				c1.41-2.52,3.04-4.78,5-6.89c19.73-22.23,47.35-13.79,82.88,25.33c0.11,1.47,0.22,2.94,0.33,4.41
				c0.32,15.04-9.92,30.54-23.12,37.76c-6.06,3.31-12.78,5.4-19.66,6.12c-1.6,0.1-3.2,0.19-4.8,0.29
				c-16.61-13.08-33.22-26.17-49.83-39.25c-0.77-4.43-0.21-8.93,0.41-13.32c0.05-0.33,0.34-1.28-0.02-1.56
				c-0.4-0.3-1.25,2.24-1.29,2.35c-0.68,1.9-1.29,3.83-1.87,5.77c-0.4,1.33-1.4,3.47-1.21,4.91c0.42,3.25,0.82,6.49,1.77,9.65
				c0.9,3.01,2.18,6.04,3.69,8.8c3.03,5.52,7.29,10.5,12.18,14.45c10.39,8.39,24.02,12.51,37.31,11.88
				c13.2-0.63,26.29-6,35.72-15.34c9.55-9.47,14.81-22.7,13.7-36.15c-1.06-12.85-7.73-24.53-17.76-32.53
				c-10.81-8.63-24.7-12.73-38.47-11.69c-13.62,1.02-26.76,6.84-35.97,17.06c-4.35,4.83-7.47,10.27-9.87,16.3
				c-2.1,5.27-3.06,10.61-3.57,16.22c0.57,0,1.04-0.23,1.43-0.7c1.45-1.25,2.86-2.54,4.24-3.88c1.4-1.31,2.75-2.67,4.06-4.06
				C256.43,248.34,256.68,247.87,256.71,247.31z"/>
			<path class="st10" d="M258.29,249.26c0.35-3.87,0.78-7.45,2.34-11.06c0.91-2.59,2.44-4.8,4.59-6.65
				c1.24-1.56,2.48-3.11,3.73-4.67c23.96,3.59,47.92,7.18,71.88,10.77c-0.39-0.57-0.79-1.14-1.18-1.71c1.13,1.81,2.27,3.62,3.4,5.43
				c-0.34-0.62-0.67-1.23-1.01-1.85c0.94,1.92,1.89,3.85,2.83,5.77c-0.28-0.66-0.55-1.32-0.83-1.98c0.75,2.01,1.49,4.02,2.24,6.03
				c-0.21-0.69-0.41-1.38-0.62-2.08c0.53,2.09,1.06,4.18,1.59,6.27c-0.13-0.72-0.27-1.44-0.4-2.15c0.31,2.14,0.62,4.29,0.92,6.43
				c-0.05-0.73-0.11-1.46-0.16-2.19c0.07,2.18,0.14,4.37,0.21,6.55c0.03-0.74,0.06-1.47,0.09-2.21c-0.17,2.2-0.35,4.4-0.52,6.6
				c0.11-0.72,0.23-1.45,0.34-2.17c-0.43,2.2-0.85,4.39-1.27,6.59c0.2-0.7,0.39-1.41,0.59-2.11c-0.67,2.13-1.35,4.26-2.02,6.4
				c0.27-0.67,0.55-1.34,0.82-2c-7.7,17.11-19.45,25.18-34.74,28.57c-5.46,1.21-11.11,1.36-16.66,0.78
				c-5.04-0.52-9.83-1.67-14.54-3.53c-11.83-4.32-20.67-13.09-26.51-26.29c-3.11-8.19-3.41-16.78-0.92-25.79
				c0.1-0.45-0.02-1.03-0.62-0.91c-0.59,0.12-0.78,1.39-0.88,1.83c-1.02,4.58-1.52,8.84-1.38,13.53c0.13,4.27,1.39,9,2.98,12.94
				c0.63,1.54,1.33,3.06,2.15,4.52c6.42,11.42,16.95,19.51,29.44,23.43c18.63,5.84,41.73,0.82,54.65-14.33
				c5.68-6.65,9.31-14.47,10.21-23.2c0.61-5.92,0-11.79-1.92-17.41c-6.24-18.18-23.54-30.37-42.45-32.13
				c-9.06-0.84-17.96,0.61-26.32,4.16c-5.41,2.3-10.4,5.98-14.3,10.38c-1.56,1.76-2.83,3.61-3.99,5.63
				c-1.17,1.86-2.09,3.84-2.77,5.94c-0.9,3-1.39,6.06-1.48,9.19C255.62,252.37,258.22,250.02,258.29,249.26z"/>
			<path class="st10" d="M259.36,247.78c0.01-3.07,0.49-6.07,1.43-9c0.54-1.35,1.07-2.7,1.61-4.05c3.85-8.79,12.83-15.35,21.63-18.7
				c4.22-1.61,8.81-2.65,13.31-3.05c29.74,2.06,47.13,13.36,52.16,33.89c0.65,2.1,1.07,4.26,1.24,6.47
				c0.37,4.48,0.23,9.07-0.92,13.44c-4.05,15.46-18.8,28.44-34.32,31.96c-3.83,0.87-7.68,1.37-11.61,1.45
				c-2.41,0.11-4.81,0.03-7.21-0.26c-17.77-1.88-31.54-12.47-41.33-31.77c0.35,1.11,0.69,2.23,1.04,3.35
				c-0.72-2.51-1.44-5.03-2.15-7.54c0.24,1.17,0.49,2.34,0.73,3.5c-0.47-2.58-0.94-5.17-1.41-7.75c0.13,1.2,0.26,2.41,0.38,3.61
				c-0.19-2.66-0.38-5.31-0.58-7.97c0.01,1.24,0.02,2.47,0.02,3.71c0.08-2.69,0.16-5.39,0.24-8.08c-0.12,1.24-0.25,2.49-0.37,3.73
				c0.38-2.72,0.77-5.44,1.15-8.17c0.19-1.32-0.47-1.25-0.94-0.23c-0.4,1.21-0.74,2.44-1.02,3.69c-0.32,1.24-0.57,2.49-0.77,3.75
				c0,3.04,0.07,5.97,0.52,8.98c0.54,3.63,1.71,7.1,3.18,10.44c2.38,5.41,5.83,10.19,10.04,14.33
				c10.33,10.16,24.83,15.22,39.22,14.68c13.5-0.51,26.91-5.82,36.38-15.62c6.7-6.93,11.45-16.33,12.22-26.04
				c0.72-9.04-1.14-17.78-5.58-25.73c-6.94-12.43-19.59-21.13-33.43-24.13c-14.91-3.24-31.35-0.03-43.58,9.2
				c-4.89,3.69-9.16,8.39-12.22,13.7c-1.88,3.28-3.38,6.81-4.42,10.44c-0.47,1.43-0.83,2.89-1.09,4.37
				c-0.56,2.2-0.84,4.43-0.86,6.71c-0.13,1.54,2.59-1.58,2.4-1.38c1.16-1.23,2.28-2.48,3.38-3.77
				C258.46,249.3,258.97,248.58,259.36,247.78z"/>
			<path class="st10" d="M255.81,245.93c0.05-3.07,0.56-6.06,1.52-8.98c1.77-5.33,4.81-9.94,9.11-13.82
				c3.8-3.48,8.28-6.02,13.05-7.9c5-1.96,10.22-3.08,15.59-3.35c19.73-1,38.64,8.77,48.49,29.13c-0.27-0.65-0.54-1.31-0.8-1.96
				c0.74,2,1.48,4,2.22,5.99c-0.21-0.69-0.42-1.37-0.63-2.06c-5.6,15.8-11.21,31.61-16.81,47.41c0.76-0.56,1.51-1.12,2.27-1.68
				c-2.01,1.31-4.03,2.62-6.04,3.93c0.83-0.49,1.66-0.99,2.5-1.48c-2.15,1.14-4.31,2.28-6.46,3.42c0.9-0.41,1.79-0.82,2.69-1.23
				c-2.29,0.94-4.59,1.88-6.88,2.82c0.96-0.32,1.91-0.65,2.87-0.97c-8.65,1.15-17.3,2.3-25.95,3.46c-1.63-0.25-3.27-0.5-4.9-0.75
				c-3.99-0.73-7.86-2.08-11.52-3.78c-6.21-2.87-12.08-7.03-16.47-12.32c-3.76-4.53-6.81-9.68-8.59-15.32
				c-1.11-3.51-1.67-7.13-1.8-10.81c-0.14-3.86,0.42-7.39,1.14-11.2c0.18-0.94-0.33-1.1-0.89-0.39c-0.47,0.81-0.88,1.65-1.24,2.52
				c-0.39,0.85-0.73,1.73-1,2.62c-0.25,3.54-0.59,6.9-0.1,10.45c0.43,3.12,1.01,6.05,2.03,9.04c1.57,4.6,3.98,8.88,6.9,12.75
				c5.81,7.71,14.21,13.43,23.28,16.59c14.49,5.05,30.84,3.58,44.29-3.75c8.15-4.45,15.55-11.35,19.66-19.79
				c3.09-6.35,4.71-13.24,4.43-20.32c-0.42-10.47-4.98-20.88-12.31-28.37c-6.69-6.84-15.02-11.77-24.31-14.16
				c-9.66-2.48-20.1-2.31-29.63,0.64c-7.61,2.36-14.89,6.58-20.34,12.45c-2.64,2.85-4.83,6.03-6.55,9.5
				c-1.11,2.04-1.97,4.18-2.59,6.42c-0.95,2.92-1.51,5.92-1.69,8.99c-0.15,1.19,1.81-0.38,1.85-0.41c0.86-0.66,1.7-1.35,2.51-2.07
				C255.18,246.89,255.56,246.46,255.81,245.93z"/>
			<path class="st10" d="M260.62,245.93c-0.01-3.04,0.45-6.01,1.38-8.9c1.33-3.95,3.35-7.47,6.06-10.58c2.86-3.2,6.15-5.93,9.88-8.1
				c8.61-5.01,18.76-6.92,28.63-6.14c10.52,0.83,20.62,4.64,28.71,11.49c3.5,2.96,6.48,6.42,9.03,10.23
				c5.52,8.57,7.57,18.35,6.16,29.34c-6.51,34.89-38.27,28.78-95.3-18.32c0.08-0.5,0.39-1.76-0.52-1.52
				c-0.76,0.2-1.14,3.21-1.22,3.78c-0.6,4.41-0.9,8.71-0.24,13.16c0.63,4.24,1.96,8.32,3.76,12.2c4.25,9.14,11.87,16.38,20.6,21.21
				c17.21,9.52,40.11,8.05,56.17-3.09c8.51-5.9,14.68-14.22,17.42-24.26c3.81-13.95-0.66-29.17-10.17-39.81
				c-6.76-7.56-15.7-12.61-25.47-15.19c-11.17-2.95-24.32-1.96-34.78,3.08c-6.87,3.31-13.29,8.01-17.64,14.37
				c-0.95,1.4-1.85,2.83-2.66,4.32c-1.43,2.65-2.52,5.43-3.29,8.35c-0.82,2.87-1.26,5.79-1.31,8.78c-0.1,1.23,1.82-0.7,1.75-0.63
				c0.75-0.75,1.47-1.53,2.15-2.34C260.15,246.95,260.45,246.48,260.62,245.93z"/>
			<path class="st10" d="M259.45,248.92c-0.01-3.04,0.45-6,1.37-8.89c1.95-3.51,3.9-7.02,5.85-10.53c2.58-3.38,6.14-5.98,9.69-8.25
				c10.26-6.56,23.7-8.17,35.48-5.96c9.27,1.74,18.08,6.09,24.95,12.59c6.35,6.01,11.33,14.09,12.98,22.74
				c1.67,8.75,0.84,18.29-3.4,26.25c-4.2,7.87-10.74,14.5-18.68,18.62c-7.63,3.96-15.91,6.08-24.51,6.18
				c-4.96,0.06-9.78-0.52-14.59-1.77c-16.69-4.33-29.6-15.9-34.72-35.13c0.18,0.9,0.35,1.8,0.53,2.69
				c-0.38-2.31-0.75-4.62-1.13-6.93c0.09,0.92,0.18,1.85,0.27,2.77c-0.13-2.37-0.26-4.75-0.39-7.12c0,0.95,0,1.89,0.01,2.84
				c0.11-2.4,0.22-4.79,0.32-7.19c-0.09,0.96-0.19,1.91-0.28,2.87c0.38-2.42,0.75-4.85,1.13-7.27c0.17-1.08-0.55-0.97-0.94-0.23
				c-0.33,0.93-0.61,1.87-0.83,2.83c-0.25,0.95-0.45,1.92-0.58,2.89c-0.24,3.81-0.28,7.29,0.29,11.05
				c0.54,3.59,1.53,7.11,2.98,10.45c2.92,6.72,7.71,12.99,13.46,17.55c12.46,9.88,28.65,13.69,44.26,10.79
				c15.23-2.83,28.77-12.04,35.88-25.95c3.86-7.55,4.95-16.32,3.92-24.66c-0.88-7.11-3.97-14.06-8.19-19.78
				c-4.86-6.59-11.12-11.68-18.48-15.26c-11.51-5.59-24.56-6.58-36.93-3.67c-7.45,1.75-14.72,5.52-20.5,10.53
				c-2.8,2.43-5.24,5.15-7.35,8.19c-2.08,3.01-3.84,6.28-5.1,9.73c-1.55,4.24-2.19,8.59-2.56,13.06c-0.12,1.42,2.21-1.27,2.03-1.07
				c0.91-1.02,1.79-2.06,2.63-3.14C258.82,250.21,259.2,249.6,259.45,248.92z"/>
			<path class="st10" d="M258.89,246.03c0.38-4.57,0.92-8.87,3.05-13.03c5.44-10.6,16.81-18,28.46-20.55
				c2.26-0.57,4.55-0.92,6.88-1.06c3.21,0.04,6.41,0.08,9.62,0.12c4.73,0.37,10.03,1.68,14.39,3.55
				c7.24,3.11,13.52,7.61,18.68,13.56c2.81,3.24,5.4,7.39,6.99,11.38c4.51,11.32,4.25,21.7-1.45,34.49c0.37-0.68,0.73-1.36,1.1-2.03
				c-1.13,1.93-2.26,3.85-3.38,5.78c0.43-0.64,0.86-1.27,1.29-1.91c-1.32,1.8-2.65,3.6-3.97,5.4c0.49-0.59,0.98-1.18,1.47-1.77
				c-1.49,1.64-2.97,3.28-4.46,4.92c0.55-0.54,1.09-1.08,1.64-1.62c-1.65,1.5-3.31,2.99-4.96,4.49c0.6-0.49,1.2-0.98,1.8-1.47
				c-1.78,1.33-3.56,2.67-5.34,4c0.65-0.43,1.3-0.86,1.94-1.3c-1.92,1.17-3.85,2.35-5.77,3.52c0.69-0.37,1.39-0.75,2.08-1.12
				c-2.02,1.01-4.05,2.01-6.07,3.02c0.73-0.31,1.47-0.62,2.2-0.93c-23.47-9.04-46.95-18.09-70.42-27.13c0.33,1.1,0.67,2.19,1,3.29
				c-0.7-2.49-1.39-4.98-2.09-7.47c0.23,1.14,0.45,2.29,0.68,3.43c-0.44-2.56-0.89-5.13-1.33-7.69c0.1,1.17,0.21,2.34,0.31,3.51
				c-0.16-2.62-0.32-5.24-0.49-7.86c-0.02,1.19-0.04,2.38-0.06,3.58c0.12-2.65,0.24-5.31,0.35-7.96c-0.15,1.19-0.31,2.37-0.46,3.56
				c0.42-2.66,0.84-5.32,1.26-7.99c0.04-0.25,0.1-0.9-0.2-1.06c-0.46-0.24-0.91,1.32-0.98,1.5c-0.77,2.17-1.72,4.69-1.73,7.02
				c-0.03,7.27,1.13,14.52,4.56,21.03c3.12,5.91,7.32,11.12,12.53,15.3c11.79,9.47,27.38,13.32,42.3,10.99
				c11.05-1.73,21.7-6.9,29.48-14.99c7.02-7.3,11.74-16.99,12.12-27.23c0.47-12.58-4.39-25.23-13.56-33.98
				c-5.58-5.33-11.94-9.35-19.23-11.92c-14-4.92-30.13-3.93-43.24,3.18c-6.84,3.71-13.24,9.31-17.25,16.05
				c-1.58,2.65-2.96,5.43-4.09,8.3c-1.7,4.3-2.33,8.75-2.75,13.31c-0.13,1.44,2.42-1.16,2.32-1.07c1.13-1.05,2.23-2.13,3.3-3.24
				C258.01,247.38,258.51,246.75,258.89,246.03z"/>
			<path class="st10" d="M255.46,247.82c0.13-1.56,0.26-3.12,0.4-4.67c-0.02,0.14-0.03,0.29-0.05,0.43
				c0.49-2.93,1.37-5.74,2.63-8.43c1.25-2.59,2.79-4.99,4.61-7.21c0.97-1.05,1.95-2.1,2.92-3.15c24.78-14.56,45.95-15.33,63.51-2.31
				c3.58,2.68,6.87,5.95,9.55,9.53c8.14,10.89,10.12,23.34,6.56,37.62c0.56-1.57,1.11-3.13,1.67-4.7c-1.1,2.95-2.21,5.9-3.31,8.85
				c0.73-1.52,1.45-3.04,2.18-4.56c-1.41,2.81-2.81,5.62-4.22,8.42c0.89-1.43,1.78-2.87,2.66-4.3c-1.71,2.64-3.42,5.29-5.13,7.93
				c1.05-1.35,2.1-2.7,3.15-4.05c-6.71,5.94-13.42,11.88-20.13,17.82c-2.04,1.03-4.16,1.87-6.34,2.53
				c-1.44,0.55-2.92,0.98-4.44,1.27c-26.52,6.98-46.83-10.44-60.93-52.25c-0.03-0.48-0.21-0.54-0.53-0.19
				c-0.58,0.85-1.01,1.77-1.31,2.76c-0.7,1.82-1.37,3.65-1.99,5.5c-0.4,0.95-0.66,1.94-0.76,2.96c0.28,3.32,0.53,6.63,1.35,9.87
				c0.79,3.1,1.97,6.27,3.41,9.13c2.89,5.76,7.11,11.02,12.02,15.18c10.45,8.86,24.46,13.27,38.09,12.6
				c13.4-0.66,26.67-6.25,36.06-15.91c9.27-9.53,14.21-22.64,13-35.91c-1.13-12.43-7.61-23.65-17.22-31.5
				c-10.37-8.46-23.71-12.58-37.03-11.98c-13.3,0.6-26.32,5.85-35.69,15.43c-4.48,4.59-7.79,9.85-10.27,15.76
				c-1.21,2.87-2.07,5.81-2.72,8.85c-0.66,3.09-0.6,3.42-0.96,7.23c0.5,0.05,0.94-0.13,1.3-0.54c1.29-1.05,2.54-2.14,3.75-3.28
				c1.23-1.11,2.42-2.27,3.57-3.47C255.25,248.74,255.47,248.32,255.46,247.82z"/>
		</g>
	</g>
</g>
<ellipse class="st11" cx="300.04" cy="271.41" rx="19.28" ry="11.76"/>
<path class="st12" d="M264.02,246.54c1.04,1.3,3.69,4.25,8.15,5.6c7.34,2.22,13.49-1.71,14.4-2.31"/>
<path class="st12" d="M336.01,246.54c-1.04,1.3-3.69,4.25-8.15,5.6c-7.34,2.22-13.49-1.71-14.4-2.31"/>
<path class="st13" d="M291.39,278.19c-1.18-6.17-2.14-13.49,0-14.25c3.49-1.23,12.22,15.96,15.8,14.72c1.3-0.45,2.23-3.45,0-15.53"
	/>
<ellipse class="st14" cx="307.06" cy="262.73" rx="1.49" ry="0.93"/>
<ellipse class="st14" cx="291.31" cy="278.02" rx="1.49" ry="0.93"/>
</svg>
